<svg width="22" height="23" viewBox="0 0 22 23" fill="none" xmlns="http://www.w3.org/2000/svg">
<path d="M15.972 14.7301H14.9711L14.6164 14.3882C15.4082 13.4689 15.9868 12.386 16.311 11.2171C16.6351 10.0482 16.6968 8.82217 16.4915 7.62668C15.896 4.10665 12.9567 1.29569 9.40926 0.865182C8.1621 0.707497 6.89538 0.837036 5.70602 1.24389C4.51666 1.65074 3.43619 2.32412 2.54729 3.2125C1.65839 4.10088 0.984612 5.18072 0.577522 6.36938C0.170432 7.55804 0.0408163 8.82402 0.198594 10.0704C0.629354 13.6158 3.44196 16.5534 6.96406 17.1485C8.16025 17.3537 9.38703 17.2921 10.5566 16.9681C11.7262 16.6442 12.8097 16.0658 13.7295 15.2745L14.0716 15.6291V16.6294L19.4561 22.0107C19.9755 22.5298 20.8244 22.5298 21.3438 22.0107C21.8633 21.4916 21.8633 20.6432 21.3438 20.1241L15.972 14.7301ZM8.37036 14.7301C5.21568 14.7301 2.66913 12.185 2.66913 9.03216C2.66913 5.87933 5.21568 3.33427 8.37036 3.33427C11.525 3.33427 14.0716 5.87933 14.0716 9.03216C14.0716 12.185 11.525 14.7301 8.37036 14.7301Z" fill="#3D348B"/>
</svg>
